# xmcd CD database file
#
# Track frame offsets:
#	150
#	20954
#	42050
#	62409
#	83589
#	103827
#	124522
#	146212
#	166363
#	188204
#	207537
#	227545
#
# Disc length: 3296 seconds
#
# Revision: 0
# Processed by: cddbd v1.5.1PL2 Copyright (c) Steve Scherf et al.
# Submitted via: CDex 1.51
#
DISCID=a30cde0c
DTITLE=Jerry Galante - renovado
DYEAR=2004
DGENRE=Salsa
TTITLE0=01 jerry galante - pal' bailador
TTITLE1=02 jerry galante dejame
TTITLE2=03 jerry galante se prendiò el rumbon
TTITLE3=04 tu eres lo maximo
TTITLE4=05 solo tu carino
TTITLE5=06 no puedo olvidarla
TTITLE6=07 galante boogaloo
TTITLE7=08 corazon espinado
TTITLE8=09 mas que enamorado
TTITLE9=10 intentemolos de nuevo
TTITLE10=11 la pagaras
TTITLE11=12 al paso
EXTD=YEAR: 2004
EXTT0=
EXTT1=
EXTT2=
EXTT3=
EXTT4=
EXTT5=
EXTT6=
EXTT7=
EXTT8=
EXTT9=
EXTT10=
EXTT11=
PLAYORDER=
